<svg id="Layer_1" data-name="Layer 1" xmlns="http://www.w3.org/2000/svg" viewBox="0 0 60 60"><defs><style>.cls-1{fill:#f3f3f3;}.cls-2{fill:none;stroke:#f3f3f3;stroke-miterlimit:10;stroke-width:2px;}</style></defs><title>Untitled-1</title><path class="cls-1" d="M31.8,16.53a3.6,3.6,0,0,0-4.86,0,3.2,3.2,0,0,0-1,2.4,3.41,3.41,0,1,0,6.82,0A3.21,3.21,0,0,0,31.8,16.53Z"/><path class="cls-1" d="M36.26,42.86v1.34a.22.22,0,0,1-.22.22H24a.22.22,0,0,1-.22-.22V42.51a.21.21,0,0,1,.16-.21,3.24,3.24,0,0,1,.6,0l.64-.05a7.81,7.81,0,0,0,1.25-.2,3.19,3.19,0,0,0,.93-.38A.71.71,0,0,0,27.7,41V27.36c-.07-.72-.4-.83-.4-.83l-2.9-1.05a.3.3,0,0,1-.08-.35h0c.12-.28,1.23-.39,1.41-.44l6.46-1.46h.35v18a.9.9,0,0,0,.5.58,4.89,4.89,0,0,0,1.43.36,13.75,13.75,0,0,0,1.6.08c.05,0,.12,0,.14.06l0,0,0,0,0,0A1,1,0,0,1,36.26,42.86Z"/><path class="cls-1" d="M36.19,42.34l0,0,0,0Z"/><circle class="cls-2" cx="30" cy="30" r="20"/></svg>