<svg id="Layer_1" data-name="Layer 1" xmlns="http://www.w3.org/2000/svg" viewBox="0 0 60 60"><defs><style>.cls-1{fill:#f3f3f3;}</style></defs><title>SignIn</title><path class="cls-1" d="M45.67,21.58h-3V17.8a12.66,12.66,0,0,0-25.31,0v3.78h-3A4.32,4.32,0,0,0,10,25.89V50.5a4.33,4.33,0,0,0,4.31,4.35H45.67A4.34,4.34,0,0,0,50,50.5V25.89A4.34,4.34,0,0,0,45.67,21.58ZM23.06,17.8a6.93,6.93,0,0,1,13.86,0v3.78H23.06Zm9.26,25.66v6.28a.47.47,0,0,1-.49.46h-3a.46.46,0,0,1-.45-.46V43.45a5.52,5.52,0,1,1,4,0Z"/></svg>